<svg id="Capa_1" enable-background="new 0 0 512 512" height="512" viewBox="0 0 512 512" width="512" xmlns="http://www.w3.org/2000/svg"><g><g><g><g><g><g><g><circle cx="256" cy="256" fill="#a3d4ff" r="256"/></g></g></g></g></g></g><path d="m512 256c0-11.493-.758-22.81-2.225-33.902l-162.098-162.098-216.396 385.937 57.014 57.014c21.566 5.899 44.268 9.049 67.705 9.049 141.385 0 256-114.615 256-256z" fill="#65b1fc"/><g><path d="m256.001 66.063c-95.798 0-173.457 77.659-173.457 173.457 0 46.835 18.569 89.327 48.737 120.536v85.882l68.614-42.241c17.599 6.013 36.47 9.28 56.106 9.28 95.798 0 173.457-77.659 173.457-173.457s-77.66-173.457-173.457-173.457z" fill="#7584f2"/></g><g><path d="m256.001 66.063v346.914c95.798 0 173.457-77.659 173.457-173.457s-77.66-173.457-173.457-173.457z" fill="#606aea"/></g><g fill="#fff"><path d="m138.852 264.702c0-28.882 22.269-46.562 49.532-46.562 21.46 0 33.876 11.877 39.544 23.484l-22.944 11.741c-2.564-5.533-8.503-11.202-16.601-11.202-13.091 0-21.864 9.987-21.864 22.539s8.772 22.539 21.864 22.539c5.129 0 11.202-1.89 14.037-4.049v-3.239h-16.736v-23.753h43.863v36.845c-9.987 11.067-23.483 18.22-41.164 18.22-27.262 0-49.531-17.815-49.531-46.563z"/><path d="m236.835 264.702c0-27.667 21.46-46.562 49.262-46.562s49.262 18.895 49.262 46.562c0 27.668-21.46 46.562-49.262 46.562-27.802.001-49.262-18.894-49.262-46.562zm70.857 0c0-12.552-8.503-22.539-21.594-22.539-13.092 0-21.594 9.987-21.594 22.539s8.503 22.539 21.594 22.539 21.594-9.987 21.594-22.539z"/><path d="m345.885 276.175-3.644-56.55h28.882l-3.374 56.55zm-3.374 20.649c0-7.828 6.479-14.441 14.306-14.441 7.828 0 14.306 6.613 14.306 14.441 0 7.692-6.478 14.306-14.306 14.306-7.827 0-14.306-6.613-14.306-14.306z"/></g><g><path d="m347.677 60-71.744 82.436h32.423l-15.243 60.428 72.27-79.054h-34.263z" fill="#ffce00"/></g></g></svg>